<mxfile host="app.diagrams.net" modified="2021-11-10T16:24:41.667Z" agent="5.0 (Windows NT 10.0; Win64; x64) AppleWebKit/537.36 (KHTML, like Gecko) Chrome/95.0.4638.69 Safari/537.36" etag="b8gjuklOdXsxNKZ6T0cB" version="15.6.8" type="github">
  <diagram id="9g9WBC-GlDjoLAJIXBGh" name="Page-1">
    <mxGraphModel dx="782" dy="706" grid="1" gridSize="10" guides="1" tooltips="1" connect="1" arrows="1" fold="1" page="1" pageScale="1" pageWidth="850" pageHeight="1100" math="0" shadow="0">
      <root>
        <mxCell id="0" />
        <mxCell id="1" parent="0" />
        <mxCell id="NroAKe_AM4JDEbIQi2gb-4" value="" style="edgeStyle=orthogonalEdgeStyle;orthogonalLoop=1;jettySize=auto;html=1;curved=1;" edge="1" parent="1" source="NroAKe_AM4JDEbIQi2gb-1" target="NroAKe_AM4JDEbIQi2gb-3">
          <mxGeometry relative="1" as="geometry">
            <Array as="points">
              <mxPoint x="430" y="185" />
              <mxPoint x="380" y="185" />
            </Array>
          </mxGeometry>
        </mxCell>
        <mxCell id="NroAKe_AM4JDEbIQi2gb-1" value="Start" style="ellipse;whiteSpace=wrap;html=1;" vertex="1" parent="1">
          <mxGeometry x="350" y="60" width="120" height="80" as="geometry" />
        </mxCell>
        <mxCell id="NroAKe_AM4JDEbIQi2gb-2" value="End" style="ellipse;whiteSpace=wrap;html=1;" vertex="1" parent="1">
          <mxGeometry x="730" y="760" width="120" height="80" as="geometry" />
        </mxCell>
        <mxCell id="NroAKe_AM4JDEbIQi2gb-21" style="edgeStyle=orthogonalEdgeStyle;curved=1;orthogonalLoop=1;jettySize=auto;html=1;" edge="1" parent="1" source="NroAKe_AM4JDEbIQi2gb-3">
          <mxGeometry relative="1" as="geometry">
            <mxPoint x="550" y="240" as="targetPoint" />
          </mxGeometry>
        </mxCell>
        <mxCell id="NroAKe_AM4JDEbIQi2gb-3" value="Get hours" style="shape=parallelogram;perimeter=parallelogramPerimeter;whiteSpace=wrap;html=1;fixedSize=1;" vertex="1" parent="1">
          <mxGeometry x="490" y="130" width="120" height="60" as="geometry" />
        </mxCell>
        <mxCell id="NroAKe_AM4JDEbIQi2gb-7" value="Get rate" style="shape=parallelogram;perimeter=parallelogramPerimeter;whiteSpace=wrap;html=1;fixedSize=1;" vertex="1" parent="1">
          <mxGeometry x="330" y="370" width="120" height="60" as="geometry" />
        </mxCell>
        <mxCell id="NroAKe_AM4JDEbIQi2gb-28" value="" style="edgeStyle=orthogonalEdgeStyle;curved=1;orthogonalLoop=1;jettySize=auto;html=1;exitX=0.5;exitY=1;exitDx=0;exitDy=0;" edge="1" parent="1" source="NroAKe_AM4JDEbIQi2gb-7" target="NroAKe_AM4JDEbIQi2gb-27">
          <mxGeometry relative="1" as="geometry">
            <mxPoint x="440" y="450" as="sourcePoint" />
          </mxGeometry>
        </mxCell>
        <mxCell id="NroAKe_AM4JDEbIQi2gb-15" value="" style="edgeStyle=orthogonalEdgeStyle;orthogonalLoop=1;jettySize=auto;html=1;curved=1;" edge="1" parent="1" source="NroAKe_AM4JDEbIQi2gb-11" target="NroAKe_AM4JDEbIQi2gb-14">
          <mxGeometry relative="1" as="geometry" />
        </mxCell>
        <mxCell id="NroAKe_AM4JDEbIQi2gb-11" value="pay = hours * rate" style="whiteSpace=wrap;html=1;" vertex="1" parent="1">
          <mxGeometry x="350" y="610" width="120" height="60" as="geometry" />
        </mxCell>
        <mxCell id="NroAKe_AM4JDEbIQi2gb-33" value="" style="edgeStyle=orthogonalEdgeStyle;curved=1;orthogonalLoop=1;jettySize=auto;html=1;" edge="1" parent="1" source="NroAKe_AM4JDEbIQi2gb-14" target="NroAKe_AM4JDEbIQi2gb-32">
          <mxGeometry relative="1" as="geometry" />
        </mxCell>
        <mxCell id="NroAKe_AM4JDEbIQi2gb-14" value="print Pay" style="whiteSpace=wrap;html=1;" vertex="1" parent="1">
          <mxGeometry x="440" y="730" width="120" height="60" as="geometry" />
        </mxCell>
        <mxCell id="NroAKe_AM4JDEbIQi2gb-23" style="edgeStyle=orthogonalEdgeStyle;curved=1;orthogonalLoop=1;jettySize=auto;html=1;exitX=0.5;exitY=1;exitDx=0;exitDy=0;entryX=0.5;entryY=0;entryDx=0;entryDy=0;" edge="1" parent="1" source="NroAKe_AM4JDEbIQi2gb-22" target="NroAKe_AM4JDEbIQi2gb-24">
          <mxGeometry relative="1" as="geometry">
            <mxPoint x="790" y="350" as="targetPoint" />
          </mxGeometry>
        </mxCell>
        <mxCell id="NroAKe_AM4JDEbIQi2gb-30" value="Yes" style="edgeLabel;html=1;align=center;verticalAlign=middle;resizable=0;points=[];" vertex="1" connectable="0" parent="NroAKe_AM4JDEbIQi2gb-23">
          <mxGeometry x="-0.2552" y="3" relative="1" as="geometry">
            <mxPoint as="offset" />
          </mxGeometry>
        </mxCell>
        <mxCell id="NroAKe_AM4JDEbIQi2gb-26" style="edgeStyle=orthogonalEdgeStyle;curved=1;orthogonalLoop=1;jettySize=auto;html=1;exitX=0;exitY=1;exitDx=0;exitDy=0;entryX=0.5;entryY=0;entryDx=0;entryDy=0;" edge="1" parent="1" source="NroAKe_AM4JDEbIQi2gb-22" target="NroAKe_AM4JDEbIQi2gb-7">
          <mxGeometry relative="1" as="geometry">
            <mxPoint x="440" y="360" as="targetPoint" />
          </mxGeometry>
        </mxCell>
        <mxCell id="NroAKe_AM4JDEbIQi2gb-22" value="is hour &amp;lt; 0" style="rhombus;whiteSpace=wrap;html=1;" vertex="1" parent="1">
          <mxGeometry x="510" y="230" width="80" height="80" as="geometry" />
        </mxCell>
        <mxCell id="NroAKe_AM4JDEbIQi2gb-25" style="edgeStyle=orthogonalEdgeStyle;curved=1;orthogonalLoop=1;jettySize=auto;html=1;" edge="1" parent="1" source="NroAKe_AM4JDEbIQi2gb-24" target="NroAKe_AM4JDEbIQi2gb-2">
          <mxGeometry relative="1" as="geometry" />
        </mxCell>
        <mxCell id="NroAKe_AM4JDEbIQi2gb-24" value="Display total pay" style="shape=parallelogram;perimeter=parallelogramPerimeter;whiteSpace=wrap;html=1;fixedSize=1;" vertex="1" parent="1">
          <mxGeometry x="730" y="360" width="120" height="60" as="geometry" />
        </mxCell>
        <mxCell id="NroAKe_AM4JDEbIQi2gb-31" style="edgeStyle=orthogonalEdgeStyle;curved=1;orthogonalLoop=1;jettySize=auto;html=1;exitX=0.5;exitY=1;exitDx=0;exitDy=0;entryX=0.5;entryY=0;entryDx=0;entryDy=0;" edge="1" parent="1" source="NroAKe_AM4JDEbIQi2gb-27" target="NroAKe_AM4JDEbIQi2gb-11">
          <mxGeometry relative="1" as="geometry" />
        </mxCell>
        <mxCell id="NroAKe_AM4JDEbIQi2gb-35" value="" style="edgeStyle=orthogonalEdgeStyle;curved=1;orthogonalLoop=1;jettySize=auto;html=1;" edge="1" parent="1" source="NroAKe_AM4JDEbIQi2gb-27" target="NroAKe_AM4JDEbIQi2gb-34">
          <mxGeometry relative="1" as="geometry" />
        </mxCell>
        <mxCell id="NroAKe_AM4JDEbIQi2gb-27" value="is hours &amp;gt; 40?" style="rhombus;whiteSpace=wrap;html=1;" vertex="1" parent="1">
          <mxGeometry x="400" y="490" width="80" height="80" as="geometry" />
        </mxCell>
        <mxCell id="NroAKe_AM4JDEbIQi2gb-29" style="edgeStyle=orthogonalEdgeStyle;curved=1;orthogonalLoop=1;jettySize=auto;html=1;exitX=0.5;exitY=0;exitDx=0;exitDy=0;entryX=0.408;entryY=-0.083;entryDx=0;entryDy=0;entryPerimeter=0;" edge="1" parent="1" source="NroAKe_AM4JDEbIQi2gb-7" target="NroAKe_AM4JDEbIQi2gb-7">
          <mxGeometry relative="1" as="geometry" />
        </mxCell>
        <mxCell id="NroAKe_AM4JDEbIQi2gb-32" value="add pay to total pay" style="whiteSpace=wrap;html=1;" vertex="1" parent="1">
          <mxGeometry x="620" y="610" width="120" height="60" as="geometry" />
        </mxCell>
        <mxCell id="NroAKe_AM4JDEbIQi2gb-34" value="Pay = hours * 1.5(rate)" style="whiteSpace=wrap;html=1;" vertex="1" parent="1">
          <mxGeometry x="550" y="480" width="120" height="60" as="geometry" />
        </mxCell>
      </root>
    </mxGraphModel>
  </diagram>
</mxfile>
